<?xml version="1.0" standalone="no"?>
<!DOCTYPE svg PUBLIC "-//W3C//DTD SVG 20010904//EN"
 "http://www.w3.org/TR/2001/REC-SVG-20010904/DTD/svg10.dtd">
<svg version="1.0" xmlns="http://www.w3.org/2000/svg"
 width="512.000000pt" height="512.000000pt" viewBox="0 0 512.000000 512.000000"
 preserveAspectRatio="xMidYMid meet">
<metadata>
Created by potrace 1.14, written by Peter Selinger 2001-2017
</metadata>
<g transform="translate(0.000000,512.000000) scale(0.100000,-0.100000)"
fill="#000000" stroke="none">
<path d="M3343 5101 c-20 -13 -35 -32 -41 -53 -8 -32 -9 -33 -74 -38 -56 -4
-72 -10 -96 -33 l-30 -29 -78 16 c-231 46 -577 55 -794 22 -560 -84 -1022
-307 -1404 -676 -395 -381 -649 -862 -740 -1401 l-6 -37 122 -4 c136 -5 175
-17 243 -72 22 -19 54 -58 70 -87 l30 -54 5 -565 c4 -362 10 -576 17 -595 37
-106 105 -183 203 -229 55 -26 76 -30 146 -30 72 0 89 4 147 32 82 40 157 120
189 200 22 56 23 62 28 622 5 565 5 565 28 612 50 102 152 162 272 163 89 0
150 -25 213 -88 68 -68 81 -110 88 -287 7 -183 24 -240 95 -319 171 -191 477
-144 592 89 25 51 27 68 33 215 5 131 9 168 26 207 29 65 94 132 156 159 46
21 70 24 220 27 l168 4 -21 -34 c-56 -93 10 -208 120 -208 l30 0 0 -130 0
-130 -46 0 c-41 0 -51 -5 -86 -40 -39 -39 -40 -42 -36 -96 6 -76 44 -115 117
-122 l50 -4 4 -972 c1 -534 7 -981 11 -994 10 -28 19 -27 150 25 301 118 585
297 811 512 l75 71 0 680 0 680 43 0 c53 0 99 27 120 73 21 43 21 67 3 112
-18 43 -57 68 -115 75 l-46 5 -3 128 -3 127 38 0 c47 0 97 29 123 72 25 41 25
74 1 120 -10 21 -16 40 -13 43 3 3 126 5 273 5 l268 0 -5 33 c-68 379 -217
747 -423 1037 l-46 65 -5 -296 -5 -295 -30 -59 c-33 -65 -73 -98 -139 -116
-30 -8 -192 -10 -581 -5 -536 6 -540 7 -585 29 -51 26 -103 101 -114 164 -3
21 -6 248 -6 506 l0 467 93 0 93 0 17 -35 c20 -43 68 -69 112 -61 35 7 71 40
77 71 3 18 12 20 111 23 l107 3 0 -93 c1 -102 11 -163 32 -185 23 -23 71 -31
108 -19 55 17 70 59 70 189 l0 107 110 0 110 0 0 -225 c0 -225 0 -226 24 -250
45 -45 109 -42 153 7 16 18 18 44 21 244 l3 223 107 3 107 3 3 220 c4 262 -1
311 -32 350 -22 28 -30 30 -107 35 -83 5 -83 5 -91 36 -24 93 -162 94 -186 2
l-8 -33 -109 0 -109 0 -8 31 c-24 93 -162 94 -186 2 l-8 -33 -109 0 -109 0 -8
31 c-16 64 -87 91 -145 55z"/>
<path d="M4172 3665 c-86 -72 -11 -209 95 -174 38 12 73 59 73 97 0 87 -102
133 -168 77z"/>
<path d="M2145 1737 c-109 -37 -186 -104 -233 -205 -22 -48 -27 -71 -27 -142
0 -71 5 -94 27 -142 35 -76 99 -143 173 -181 55 -29 68 -32 155 -32 85 0 101
3 154 29 76 37 140 101 174 174 23 49 27 70 27 152 0 82 -4 103 -27 152 -57
121 -173 199 -307 205 -45 2 -92 -3 -116 -10z"/>
</g>
</svg>
